<svg id="calendar" xmlns="http://www.w3.org/2000/svg" width="20" height="20" viewBox="0 0 20 20">
  <path id="Path_20" data-name="Path 20" d="M17.422,1.562h-1.8V.625a.625.625,0,0,0-1.25,0v.937H5.625V.625a.625.625,0,0,0-1.25,0v.937h-1.8A2.581,2.581,0,0,0,0,4.141V17.422A2.581,2.581,0,0,0,2.578,20H17.422A2.581,2.581,0,0,0,20,17.422V4.141A2.581,2.581,0,0,0,17.422,1.562ZM18.75,17.422a1.328,1.328,0,0,1-1.328,1.328H2.578A1.328,1.328,0,0,1,1.25,17.422V7.07a.2.2,0,0,1,.2-.2H18.555a.2.2,0,0,1,.2.2Z" transform="translate(0)" fill="#fff"/>
</svg>
