<svg id="home" xmlns="http://www.w3.org/2000/svg" width="21.335" height="20" viewBox="0 0 21.335 20">
  <path id="Path_23" data-name="Path 23" d="M21.14,25.207l-8.291-8.292a3.088,3.088,0,0,0-4.361,0L.2,25.207a.667.667,0,1,0,.943.943l.529-.529V34.1a1.917,1.917,0,0,0,1.917,1.917H6.918a.417.417,0,0,0,.417-.417V29.43a2.083,2.083,0,0,1,2.083-2.083h2.5A2.083,2.083,0,0,1,14,29.43V35.6a.417.417,0,0,0,.417.417h3.334A1.917,1.917,0,0,0,19.668,34.1V25.621l.529.529a.667.667,0,1,0,.943-.943Z" transform="translate(-0.001 -16.014)" fill="#fff"/>
</svg>
