<svg id="male" xmlns="http://www.w3.org/2000/svg" width="15.212" height="20" viewBox="0 0 15.212 20">
  <path id="Path_25" data-name="Path 25" d="M108.562,9.781c2.224,0,4.026-2.19,4.026-4.891S112,0,108.562,0s-4.027,2.19-4.027,4.891S106.338,9.781,108.562,9.781Z" transform="translate(-100.956)" fill="#fff"/>
  <path id="Path_26" data-name="Path 26" d="M41.9,300.457c0-.165,0-.046,0,0Z" transform="translate(-41.895 -283.208)" fill="#fff"/>
  <path id="Path_27" data-name="Path 27" d="M308.085,301.636c0-.045,0-.313,0,0Z" transform="translate(-292.874 -284.258)" fill="#fff"/>
  <path id="Path_28" data-name="Path 28" d="M57.11,184.635c-.075-4.705-.689-6.046-5.392-6.895a3.3,3.3,0,0,1-4.41,0c-4.651.839-5.3,2.16-5.389,6.742-.007.374-.01.394-.012.35,0,.081,0,.232,0,.494,0,0,1.12,2.257,7.6,2.257s7.6-2.257,7.6-2.257c0-.169,0-.286,0-.366A3.025,3.025,0,0,1,57.11,184.635Z" transform="translate(-41.907 -167.583)" fill="#fff"/>
</svg>
