<svg xmlns="http://www.w3.org/2000/svg" width="18.263" height="19.923" viewBox="0 0 18.263 19.923">
  <g id="notification" transform="translate(0.001)">
    <path id="Path_3428" data-name="Path 3428" d="M138.015,450.49a3.118,3.118,0,0,0,3.05-2.49h-6.1A3.118,3.118,0,0,0,138.015,450.49Zm0,0" transform="translate(-129.714 -430.567)" fill="#fff"/>
    <path id="Path_3429" data-name="Path 3429" d="M14.121,50.968h-.01A5.818,5.818,0,0,1,8.3,45.158,5.759,5.759,0,0,1,8.856,42.7c-.183-.017-.368-.028-.555-.028A5.811,5.811,0,0,0,2.49,48.478v2.314A5.566,5.566,0,0,1,.507,55.054a1.452,1.452,0,0,0-.457,1.491A1.523,1.523,0,0,0,1.543,57.61h13.51a1.522,1.522,0,0,0,1.517-1.151,1.455,1.455,0,0,0-.5-1.421,5.524,5.524,0,0,1-1.954-4.069Zm0,0" transform="translate(0 -41.007)" fill="#fff"/>
    <path id="Path_3430" data-name="Path 3430" d="M264.313,4.151A4.151,4.151,0,1,1,260.162,0,4.15,4.15,0,0,1,264.313,4.151Zm0,0" transform="translate(-246.051)" fill="#1e1e1e"/>
  </g>
</svg>
